<?xml version="1.0" standalone="no"?>
<!DOCTYPE svg PUBLIC "-//W3C//DTD SVG 20010904//EN"
 "http://www.w3.org/TR/2001/REC-SVG-20010904/DTD/svg10.dtd">
<svg version="1.0" xmlns="http://www.w3.org/2000/svg"
 width="266.000000pt" height="264.000000pt" viewBox="0 0 266.000000 264.000000"
 preserveAspectRatio="xMidYMid meet">

<g transform="translate(0.000000,264.000000) scale(0.100000,-0.100000)"
fill="#000000" stroke="none">
<path d="M180 2040 l0 -140 160 0 160 0 -2 -507 -3 -508 -157 -3 -158 -3 0
-139 0 -140 475 0 475 0 0 140 0 140 -155 0 -155 0 -2 510 -3 510 158 0 157 0
0 140 0 140 -475 0 -475 0 0 -140z"/>
<path d="M1400 2040 l0 -140 200 0 200 0 0 -650 0 -650 160 0 160 0 -2 650 -3
650 198 0 197 0 0 140 0 140 -555 0 -555 0 0 -140z"/>
</g>
</svg>
